<svg xmlns="http://www.w3.org/2000/svg" viewBox="0 0 200 200" width="100%" height="100%">
    <!-- White woven cotton scarf with red floral phool -->
    <rect x="20" y="40" width="160" height="120" rx="8" fill="#FFFFFF" stroke="#D1D5DB" stroke-width="2"/>
    <!-- Red borders (Anchu) -->
    <rect x="20" y="40" width="160" height="12" fill="#DC2626"/>
    <rect x="20" y="148" width="160" height="12" fill="#DC2626"/>
    <!-- Woven red floral motifs (Phool) -->
    <g fill="#DC2626">
      <path d="M145 65 L155 75 L145 85 L135 75 Z"/>
      <path d="M145 90 L155 100 L145 110 L135 100 Z"/>
      <path d="M145 115 L155 125 L145 135 L135 125 Z"/>
      <line x1="130" y1="55" x2="130" y2="145" stroke="#DC2626" stroke-width="3"/>
      <!-- Paisley / Magor / Lotus motif -->
      <circle cx="80" cy="100" r="14" fill="none" stroke="#DC2626" stroke-width="3"/>
      <path d="M80 80 Q95 100 80 120 Q65 100 80 80 Z"/>
    </g>
    <!-- Fringe / Tassels -->
    <line x1="180" y1="45" x2="195" y2="45" stroke="#DC2626" stroke-width="2"/>
    <line x1="180" y1="65" x2="195" y2="65" stroke="#E5E7EB" stroke-width="2"/>
    <line x1="180" y1="85" x2="195" y2="85" stroke="#DC2626" stroke-width="2"/>
    <line x1="180" y1="105" x2="195" y2="105" stroke="#E5E7EB" stroke-width="2"/>
    <line x1="180" y1="125" x2="195" y2="125" stroke="#DC2626" stroke-width="2"/>
    <line x1="180" y1="145" x2="195" y2="145" stroke="#DC2626" stroke-width="2"/>
  </svg>